<?xml version="1.0" encoding="UTF-8" standalone="no"?>
<!DOCTYPE svg PUBLIC "-//W3C//DTD SVG 1.1//EN" "http://www.w3.org/Graphics/SVG/1.1/DTD/svg11.dtd">
<svg width="100%" height="100%" viewBox="0 0 1024 1024" version="1.1" xmlns="http://www.w3.org/2000/svg" xmlns:xlink="http://www.w3.org/1999/xlink" xml:space="preserve" xmlns:serif="http://www.serif.com/" style="fill-rule:evenodd;clip-rule:evenodd;stroke-linecap:round;stroke-linejoin:round;stroke-miterlimit:1.5;">
    <g transform="matrix(1.02324,0,0,1.02324,-20.8675,75.912)">
        <circle cx="520.765" cy="426.183" r="479.375" style="fill:rgb(255,0,33);"/>
        <clipPath id="_clip1">
            <circle cx="520.765" cy="426.183" r="479.375"/>
        </clipPath>
        <g clip-path="url(#_clip1)">
            <g transform="matrix(0.977288,0,0,0.977288,20.3936,-74.1879)">
                <path d="M305.875,811.718L471.875,1015.72L1068.88,867.718L1119.88,341.718L693.875,177.718L711.875,283.718L707.875,346.718L723.875,400.718L721.875,462.718L664.875,536.718L647.875,725.718L526.875,679.718L592.875,795.718L305.875,811.718Z" style="fill-opacity:0.23;stroke:black;stroke-width:1px;"/>
            </g>
        </g>
    </g>
    <g transform="matrix(0.114308,0,0,-0.114308,-73.2625,1098.3)">
        <path d="M3555,8051C3509,8040 3487,8025 3446,7979C3384,7911 3361,7831 3335,7595C3297,7246 3294,6936 3325,6608L3340,6462L3310,6396C3267,6303 3212,6082 3201,5962C3196,5905 3190,5857 3188,5856C3186,5855 3146,5848 3098,5842C2926,5818 2699,5735 2685,5691C2677,5665 2703,5620 2726,5620C2735,5620 2778,5636 2822,5655C2907,5692 3054,5735 3139,5746C3198,5754 3196,5756 3204,5654L3210,5583L3097,5546C2925,5489 2776,5403 2764,5353C2757,5327 2783,5290 2808,5290C2816,5290 2853,5310 2890,5335C2977,5393 3151,5470 3195,5470C3203,5470 3210,5447 3215,5413C3223,5343 3234,5327 3269,5335C3294,5340 3298,5335 3350,5228C3380,5166 3427,5082 3454,5041C3486,4993 3500,4965 3492,4962C3457,4951 3381,4889 3348,4845C3275,4749 3279,4824 3282,3634L3285,2565L3315,2512C3356,2437 3438,2364 3502,2345C3547,2332 3749,2330 5141,2330C6719,2330 6730,2330 6784,2351C6861,2379 6932,2447 6972,2528C7004,2593 7005,2597 7009,2752L7012,2910L7039,2910C7053,2910 7071,2914 7078,2919C7102,2934 7112,3011 7104,3135C7098,3256 7086,3290 7054,3290C7046,3290 7038,3300 7035,3312C7030,3331 7034,3749 7043,4248C7045,4364 7044,4373 7024,4389C7004,4405 7002,4418 6998,4551C6994,4650 6988,4709 6976,4740C6951,4809 6891,4881 6823,4925C6789,4947 6761,4968 6761,4972C6760,4976 6775,5000 6794,5024C6813,5049 6858,5128 6894,5199C6957,5322 6963,5330 6990,5330C7025,5330 7036,5348 7046,5418C7049,5447 7056,5470 7061,5470C7080,5470 7198,5426 7255,5397C7288,5381 7339,5350 7369,5329C7399,5307 7431,5290 7441,5290C7465,5290 7490,5317 7490,5342C7490,5391 7338,5485 7151,5550L7058,5584L7064,5628C7067,5653 7070,5691 7070,5713L7070,5752L7118,5745C7199,5733 7342,5692 7429,5656C7492,5630 7518,5624 7532,5631C7556,5644 7566,5686 7549,5706C7517,5745 7330,5813 7168,5845C7068,5865 7081,5845 7060,6010C7046,6121 7008,6261 6968,6358L6935,6435L6935,6915C6935,7423 6926,7555 6879,7775C6845,7932 6781,8025 6689,8050C6557,8086 6273,7941 5997,7696C5938,7643 5882,7600 5874,7600C5865,7600 5815,7613 5762,7630C5541,7697 5309,7726 5060,7717C4832,7708 4623,7673 4431,7611C4396,7599 4363,7593 4356,7597C4350,7601 4300,7643 4245,7690C4106,7810 4017,7878 3930,7933C3785,8022 3633,8070 3555,8051ZM3715,7847C3847,7783 4021,7653 4207,7478C4252,7436 4298,7396 4308,7391C4322,7383 4354,7390 4436,7419C4496,7440 4557,7460 4573,7464L4600,7470L4600,7323C4600,7157 4612,7113 4662,7096C4685,7088 4694,7090 4715,7110C4740,7133 4740,7134 4740,7321L4740,7508L4823,7519C4868,7525 4924,7531 4948,7532L4990,7536L4990,7069C4990,6583 4992,6558 5034,6512C5085,6455 5142,6446 5191,6487C5250,6537 5250,6533 5250,7060L5250,7542L5315,7535C5351,7531 5406,7523 5438,7516L5495,7505L5500,7312C5505,7135 5507,7117 5524,7104C5570,7071 5614,7099 5629,7170C5635,7198 5640,7280 5640,7352C5640,7452 5643,7481 5653,7478C5659,7476 5724,7454 5797,7430L5928,7386L6023,7473C6226,7659 6383,7776 6511,7838C6601,7881 6630,7885 6663,7860C6727,7809 6755,7558 6755,7018C6755,6806 6752,6628 6748,6625C6744,6621 6720,6630 6695,6645C6658,6666 6646,6669 6634,6660C6611,6640 6617,6621 6671,6543C6729,6459 6778,6357 6814,6246C6841,6165 6870,5992 6870,5917L6870,5871L6808,5899C6712,5942 6653,5958 6557,5970C6436,5985 6320,5963 6320,5926C6320,5901 6345,5892 6445,5884C6514,5879 6536,5875 6515,5870C6487,5864 6488,5863 6533,5856C6560,5852 6584,5851 6588,5854C6591,5857 6585,5860 6575,5860C6565,5860 6559,5863 6563,5866C6573,5876 6720,5838 6713,5827C6710,5821 6712,5820 6718,5824C6729,5830 6845,5776 6855,5760C6860,5752 6848,5672 6829,5588L6818,5541L6755,5565C6562,5637 6331,5669 6132,5651C5987,5637 5974,5635 5966,5615C5952,5579 5969,5570 6056,5570C6169,5570 6422,5544 6547,5520C6677,5494 6790,5453 6790,5431C6790,5405 6697,5220 6640,5132C6573,5027 6528,4986 6487,4994C6471,4997 5840,5000 5084,5000L3711,5000L3667,5063C3642,5097 3608,5150 3590,5180C3548,5251 3469,5443 3478,5452C3482,5456 3521,5470 3565,5485C3719,5535 4010,5573 4206,5569C4314,5566 4330,5571 4330,5601C4330,5628 4298,5638 4164,5651C3972,5668 3725,5640 3546,5578C3445,5544 3448,5543 3432,5629C3405,5775 3403,5765 3454,5795C3479,5810 3505,5823 3512,5824C3519,5825 3531,5829 3538,5833C3544,5838 3554,5839 3559,5836C3564,5833 3592,5835 3621,5841C3651,5847 3719,5855 3772,5860C3854,5868 3930,5889 3930,5904C3930,5907 3933,5915 3936,5924C3944,5945 3898,5966 3824,5975C3718,5987 3587,5958 3416,5885C3398,5877 3397,5881 3403,5976C3414,6154 3484,6364 3586,6527C3646,6622 3650,6632 3638,6648C3622,6666 3599,6663 3558,6635C3531,6616 3521,6614 3517,6624C3514,6631 3506,6734 3499,6851C3481,7171 3511,7722 3553,7822C3581,7889 3616,7894 3715,7847ZM5335,4811C5625,4728 5840,4516 5911,4241C5932,4161 5949,3869 5936,3817C5930,3791 5928,3790 5851,3790L5773,3790L5767,3968C5764,4084 5756,4165 5746,4204C5670,4481 5422,4660 5116,4660C4815,4659 4567,4490 4475,4222C4453,4159 4447,4114 4437,3968L4426,3790L4270,3790L4270,3933C4270,4011 4275,4105 4280,4141C4330,4486 4587,4749 4950,4826C5042,4845 5243,4838 5335,4811ZM5252,3392C5317,3364 5394,3289 5418,3232C5429,3206 5441,3154 5445,3115C5448,3077 5458,3014 5467,2977C5497,2847 5475,2784 5369,2700C5294,2641 5222,2617 5115,2618C5011,2618 4949,2637 4872,2694C4779,2762 4741,2844 4760,2932C4766,2960 4775,3026 4780,3078C4798,3244 4868,3350 4993,3400C5061,3427 5183,3423 5252,3392Z" style="fill:rgb(63,0,16);fill-rule:nonzero;"/>
        <path d="M3665,7739C3642,7703 3614,7115 3627,6945L3635,6845L3678,6908C3762,7031 3933,7183 4089,7274L4172,7323L4054,7439C3851,7637 3682,7767 3665,7739Z" style="fill:white;fill-rule:nonzero;"/>
        <path d="M6511,7715C6439,7673 6251,7518 6158,7422C6109,7373 6070,7330 6070,7327C6070,7324 6105,7303 6148,7280C6190,7258 6257,7216 6295,7188C6381,7123 6527,6984 6577,6919C6597,6892 6616,6873 6618,6875C6632,6889 6614,7483 6594,7655C6583,7752 6580,7754 6511,7715Z" style="fill:white;fill-rule:nonzero;"/>
        <path d="M4624,6785C4605,6771 4605,6770 4628,6733C4640,6712 4665,6666 4682,6630C4720,6550 4737,6530 4765,6530C4791,6530 4820,6559 4820,6584C4820,6610 4763,6712 4723,6760C4686,6803 4658,6810 4624,6785Z" style="fill:white;fill-rule:nonzero;"/>
        <path d="M5499,6760C5479,6739 5447,6691 5429,6655C5402,6599 5399,6586 5408,6564C5422,6535 5441,6526 5474,6534C5493,6539 5505,6557 5530,6617C5547,6660 5573,6712 5587,6733C5617,6780 5611,6800 5569,6800C5545,6800 5528,6790 5499,6760Z" style="fill:white;fill-rule:nonzero;"/>
        <path d="M3901,6458C3901,6451 3920,6431 3943,6415C3979,6389 3985,6378 3988,6345C4003,6116 4074,6019 4279,5950C4434,5898 4592,5904 4711,5966C4797,6012 4825,6058 4821,6148C4820,6164 4810,6175 4788,6185C4756,6198 4756,6198 4724,6151C4671,6073 4631,6044 4557,6031C4488,6019 4460,6023 4460,6046C4460,6053 4471,6097 4484,6143C4497,6188 4510,6244 4512,6265L4515,6305L4450,6327C4375,6352 4370,6350 4346,6275C4327,6216 4307,6082 4316,6069C4335,6038 4221,6102 4178,6147C4129,6198 4118,6231 4118,6322L4119,6398L4084,6415C4033,6439 3940,6470 3918,6470C3908,6470 3900,6464 3901,6458Z" style="fill:white;fill-rule:nonzero;"/>
        <path d="M6230,6439C6189,6422 6152,6403 6148,6397C6144,6391 6141,6356 6142,6320C6142,6272 6137,6243 6122,6214C6090,6152 6012,6087 5943,6066C5921,6059 5920,6061 5920,6127C5920,6223 5881,6356 5856,6347C5850,6345 5819,6335 5786,6325L5727,6306L5734,6237C5739,6178 5758,6109 5784,6048C5795,6023 5724,6014 5658,6034C5595,6052 5542,6094 5503,6155C5479,6194 5472,6200 5450,6195C5407,6184 5398,6170 5405,6126C5420,6040 5471,5988 5595,5933C5661,5905 5841,5910 5954,5944C6100,5988 6176,6043 6227,6143C6249,6185 6254,6212 6258,6288L6262,6381L6306,6417C6330,6436 6350,6456 6350,6461C6350,6478 6305,6469 6230,6439Z" style="fill:white;fill-rule:nonzero;"/>
        <path d="M4945,5912C4903,5907 4880,5883 4880,5844C4880,5807 4909,5778 5009,5715L5072,5675L5068,5590C5060,5460 5008,5365 4919,5319C4862,5291 4830,5295 4762,5340C4699,5382 4681,5387 4662,5368C4641,5347 4649,5312 4681,5275C4788,5154 4982,5175 5086,5320L5123,5371L5184,5306C5283,5200 5393,5169 5500,5217C5553,5240 5610,5301 5610,5333C5610,5384 5554,5396 5517,5354C5468,5297 5398,5285 5323,5321C5236,5363 5180,5464 5173,5593L5168,5675L5243,5723C5339,5785 5354,5802 5353,5848C5351,5913 5335,5918 5142,5917C5050,5916 4962,5913 4945,5912Z" style="fill:white;fill-rule:nonzero;"/>
        <path d="M6608,5843C6614,5841 6626,5841 6633,5843C6639,5846 6634,5848 6620,5848C6606,5848 6601,5846 6608,5843Z" style="fill:white;fill-rule:nonzero;"/>
        <path d="M4176,5808C4167,5796 4164,5782 4168,5778C4172,5774 4241,5757 4320,5739C4400,5722 4475,5706 4488,5703C4514,5697 4540,5715 4540,5740C4540,5758 4471,5782 4327,5815C4231,5836 4194,5835 4176,5808Z" style="fill:white;fill-rule:nonzero;"/>
        <path d="M5897,5805C5762,5767 5735,5749 5759,5711C5767,5698 5786,5700 5887,5723C5952,5738 6033,5755 6068,5761C6102,5767 6130,5776 6130,5780C6130,5783 6120,5796 6107,5808C6076,5837 6012,5836 5897,5805Z" style="fill:white;fill-rule:nonzero;"/>
        <path d="M4732,5578C4725,5571 4720,5559 4720,5550C4720,5510 4781,5495 4800,5529C4813,5554 4813,5556 4794,5574C4776,5593 4749,5595 4732,5578Z" style="fill:white;fill-rule:nonzero;"/>
        <path d="M5455,5570C5445,5538 5459,5510 5485,5510C5516,5510 5535,5542 5520,5570C5514,5581 5499,5590 5485,5590C5470,5590 5459,5583 5455,5570Z" style="fill:white;fill-rule:nonzero;"/>
        <path d="M4055,5429C3952,5419 3855,5392 3755,5346C3678,5310 3646,5281 3652,5253C3657,5226 3683,5226 3742,5254C3806,5284 3942,5319 4143,5355C4224,5370 4293,5386 4296,5392C4299,5397 4294,5410 4284,5421C4265,5442 4216,5444 4055,5429Z" style="fill:white;fill-rule:nonzero;"/>
        <path d="M5957,5433C5953,5430 5950,5419 5950,5409C5950,5391 5960,5386 6020,5375C6039,5372 6084,5362 6120,5354C6156,5346 6232,5331 6290,5319C6348,5308 6428,5285 6468,5269C6509,5253 6546,5240 6551,5240C6555,5240 6567,5251 6576,5265C6592,5290 6592,5292 6571,5314C6542,5345 6410,5394 6290,5420C6198,5440 5972,5449 5957,5433Z" style="fill:white;fill-rule:nonzero;"/>
        <path d="M5055,3256C4969,3217 4951,3118 5016,3041L5041,3011L5010,2909C4994,2853 4980,2800 4980,2791C4980,2777 4997,2775 5115,2775C5200,2775 5250,2778 5250,2785C5250,2790 5238,2843 5223,2901L5196,3008L5224,3045C5297,3141 5245,3253 5121,3266C5101,3268 5072,3264 5055,3256Z" style="fill:white;fill-rule:nonzero;"/>
    </g>
</svg>
